<svg width="162" height="36" viewBox="0 0 162 36" fill="none" xmlns="http://www.w3.org/2000/svg">
<g clip-path="url(#clip0_3513_42)">
<path d="M56.0002 11.1996C53.1667 20.1398 46.9866 27.5949 38.9288 32.1002C37.9987 32.6204 37.0429 33.1015 36.0641 33.5406C33.7816 34.5663 31.3732 35.3649 28.87 35.9081C28.8186 35.9203 28.7658 35.9311 28.7144 35.9405C28.671 35.9514 28.6264 35.9608 28.5817 35.9689C28.5316 35.9811 28.4815 35.9919 28.4301 36C28.4368 35.9797 28.4436 35.9608 28.4504 35.9405C28.4923 35.8027 28.5384 35.6676 28.583 35.5325C28.6209 35.4162 28.6602 35.3 28.6995 35.1852C29.3831 33.192 30.2347 31.2772 31.2378 29.457C31.6765 28.6584 32.1462 27.8773 32.6417 27.1166C35.2749 23.0775 38.6837 19.5912 42.6585 16.8669C46.6143 14.1522 51.132 12.1941 56.0002 11.2009V11.1996Z" fill="url(#paint0_linear_3513_42)"/>
<path d="M0 11.1996C2.83351 20.1398 9.01361 27.5949 17.0714 32.1002C18.0015 32.6204 18.9573 33.1015 19.9361 33.5406C22.2186 34.5663 24.627 35.3649 27.1302 35.9081C27.1816 35.9203 27.2344 35.9311 27.2859 35.9405C27.3292 35.9514 27.3739 35.9608 27.4185 35.9689C27.4686 35.9811 27.5187 35.9919 27.5702 36C27.5634 35.9797 27.5566 35.9608 27.5499 35.9405C27.5079 35.8027 27.4619 35.6676 27.4172 35.5325C27.3793 35.4162 27.34 35.3 27.3008 35.1852C26.6171 33.192 25.7656 31.2772 24.7624 29.457C24.3238 28.6584 23.854 27.8773 23.3585 27.1166C20.7254 23.0775 17.3165 19.5912 13.3417 16.8669C9.38591 14.1508 4.86827 12.1928 0 11.1996Z" fill="url(#paint1_linear_3513_42)"/>
<path d="M42.8184 0.0040057L42.4272 14.3089C37.9163 17.5331 34.1514 21.7316 31.4424 26.5962C30.9713 27.4395 30.5327 28.3029 30.1292 29.1853C29.2371 31.1272 28.5074 33.1582 27.9564 35.2608C27.4054 33.1582 26.6757 31.1272 25.7835 29.1853C25.3977 28.3394 24.978 27.5124 24.5286 26.703C24.5096 26.6665 24.4907 26.6314 24.4704 26.5962C21.7614 21.7316 17.9965 17.5331 13.4856 14.3089L13.0944 0.0040057C13.093 -0.0595054 16.4207 0.675602 16.7212 0.772896C17.899 1.15126 19.0375 1.64854 20.1138 2.25662C21.9266 3.27956 23.6567 4.55924 24.9672 6.18891C26.2777 7.81858 27.0615 10.0212 27.5218 12.0752C27.5394 12.1535 27.557 12.2319 27.5733 12.3116C27.8237 13.517 27.955 14.767 27.955 16.0466C27.955 14.767 28.0864 13.517 28.3368 12.3116C28.3531 12.2319 28.3707 12.1535 28.3883 12.0752C28.9514 9.56851 30.0047 7.10374 31.854 5.24165C33.7033 3.37955 36.0833 1.87826 38.5986 0.975591C39.9172 0.502635 41.29 0.182377 42.6817 0.0215726C42.7264 0.0148161 42.7724 0.0107622 42.8171 0.005357L42.8184 0.0040057Z" fill="url(#paint2_linear_3513_42)"/>
<path d="M27.8879 6.45111C29.2337 6.45111 30.3247 5.36211 30.3247 4.01877C30.3247 2.67542 29.2337 1.58643 27.8879 1.58643C26.5421 1.58643 25.451 2.67542 25.451 4.01877C25.451 5.36211 26.5421 6.45111 27.8879 6.45111Z" fill="#F0AD1E"/>
</g>
<path d="M155.56 25.3086L147.198 15.07V25.3086H142.589V2.32922H147.198V12.6338L155.56 2.32922H161.124L151.642 13.7202L161.387 25.3086H155.56Z" fill="white"/>
<path d="M133.888 9.90129C134.481 8.93559 135.249 8.17838 136.193 7.62969C137.158 7.08099 138.256 6.80664 139.485 6.80664V11.6461H138.267C136.818 11.6461 135.721 11.9863 134.974 12.6667C134.25 13.3471 133.888 14.5323 133.888 16.2223V25.3087H129.279V7.07002H133.888V9.90129Z" fill="white"/>
<path d="M105.781 16.1235C105.781 14.2799 106.144 12.6447 106.868 11.2181C107.614 9.79151 108.613 8.69412 109.864 7.92595C111.137 7.15777 112.552 6.77368 114.111 6.77368C115.471 6.77368 116.657 7.04803 117.666 7.59673C118.698 8.14542 119.521 8.83678 120.135 9.6708V7.06998H124.777V25.3087H120.135V22.642C119.543 23.498 118.72 24.2113 117.666 24.7819C116.635 25.3306 115.438 25.605 114.078 25.605C112.541 25.605 111.137 25.2099 109.864 24.4198C108.613 23.6296 107.614 22.5213 106.868 21.0947C106.144 19.6461 105.781 17.989 105.781 16.1235ZM120.135 16.1893C120.135 15.07 119.916 14.1152 119.477 13.3251C119.038 12.5131 118.445 11.8985 117.699 11.4815C116.953 11.0425 116.152 10.8231 115.296 10.8231C114.44 10.8231 113.65 11.0316 112.925 11.4486C112.201 11.8656 111.609 12.4801 111.148 13.2922C110.709 14.0823 110.489 15.0261 110.489 16.1235C110.489 17.2209 110.709 18.1866 111.148 19.0206C111.609 19.8327 112.201 20.4582 112.925 20.8971C113.672 21.3361 114.462 21.5556 115.296 21.5556C116.152 21.5556 116.953 21.3471 117.699 20.9301C118.445 20.4911 119.038 19.8766 119.477 19.0864C119.916 18.2744 120.135 17.3087 120.135 16.1893Z" fill="white"/>
<path d="M89.2634 9.70372C89.8559 8.8697 90.668 8.17835 91.6996 7.62965C92.7531 7.059 93.9492 6.77368 95.288 6.77368C96.8463 6.77368 98.251 7.15777 99.502 7.92595C100.775 8.69412 101.774 9.79151 102.498 11.2181C103.244 12.6228 103.617 14.2579 103.617 16.1235C103.617 17.989 103.244 19.6461 102.498 21.0947C101.774 22.5213 100.775 23.6297 99.502 24.4198C98.251 25.2099 96.8463 25.605 95.288 25.605C93.9492 25.605 92.764 25.3306 91.7325 24.7819C90.7229 24.2332 89.8998 23.5419 89.2634 22.7078V34H84.6543V7.06998H89.2634V9.70372ZM98.9094 16.1235C98.9094 15.0261 98.679 14.0823 98.2181 13.2922C97.7791 12.4801 97.1865 11.8656 96.4403 11.4486C95.716 11.0316 94.9259 10.8231 94.0699 10.8231C93.2359 10.8231 92.4458 11.0425 91.6996 11.4815C90.9753 11.8985 90.3827 12.5131 89.9218 13.3251C89.4828 14.1372 89.2634 15.0919 89.2634 16.1893C89.2634 17.2867 89.4828 18.2414 89.9218 19.0535C90.3827 19.8656 90.9753 20.4911 91.6996 20.9301C92.4458 21.3471 93.2359 21.5556 94.0699 21.5556C94.9259 21.5556 95.716 21.3361 96.4403 20.8971C97.1865 20.4582 97.7791 19.8327 98.2181 19.0206C98.679 18.2085 98.9094 17.2428 98.9094 16.1235Z" fill="white"/>
<path d="M72.5268 25.5391C70.9246 25.5391 69.476 25.2647 68.1811 24.7161C66.9081 24.1674 65.8985 23.3772 65.1523 22.3457C64.406 21.3141 64.0219 20.096 64 18.6914H68.9383C69.0041 19.6351 69.3333 20.3813 69.9259 20.93C70.5405 21.4787 71.3745 21.7531 72.428 21.7531C73.5034 21.7531 74.3484 21.5007 74.963 20.9959C75.5775 20.4691 75.8848 19.7888 75.8848 18.9547C75.8848 18.2743 75.6763 17.7147 75.2593 17.2757C74.8423 16.8368 74.3155 16.4966 73.679 16.2551C73.0645 15.9918 72.2085 15.7064 71.1111 15.3992C69.6187 14.9602 68.4006 14.5322 67.4568 14.1152C66.535 13.6763 65.7339 13.0288 65.0535 12.1728C64.3951 11.2949 64.0658 10.1317 64.0658 8.68313C64.0658 7.32236 64.406 6.13717 65.0864 5.12757C65.7668 4.11797 66.7215 3.34979 67.9506 2.82305C69.1797 2.27435 70.5844 2 72.1646 2C74.535 2 76.4554 2.58162 77.9259 3.74486C79.4184 4.88614 80.2414 6.48834 80.3951 8.55144H75.3251C75.2812 7.76132 74.941 7.11386 74.3045 6.60905C73.69 6.08231 72.8669 5.81893 71.8354 5.81893C70.9355 5.81893 70.2113 6.04938 69.6626 6.51029C69.1358 6.97119 68.8724 7.6406 68.8724 8.51852C68.8724 9.13306 69.07 9.64883 69.465 10.0658C69.882 10.4609 70.3868 10.7901 70.9794 11.0535C71.594 11.2949 72.4499 11.5802 73.5473 11.9095C75.0398 12.3484 76.2579 12.7874 77.2017 13.2263C78.1454 13.6653 78.9575 14.3237 79.6379 15.2016C80.3183 16.0796 80.6584 17.2318 80.6584 18.6584C80.6584 19.8875 80.3402 21.0288 79.7037 22.0823C79.0672 23.1358 78.1344 23.9808 76.9054 24.6173C75.6763 25.2318 74.2167 25.5391 72.5268 25.5391Z" fill="white"/>
<defs>
<linearGradient id="paint0_linear_3513_42" x1="56.0002" y1="11.3684" x2="28.521" y2="36.0514" gradientUnits="userSpaceOnUse">
<stop stop-color="#F5C400"/>
<stop offset="1" stop-color="#EE9800"/>
</linearGradient>
<linearGradient id="paint1_linear_3513_42" x1="-3.30464e-07" y1="11.3684" x2="27.4793" y2="36.0514" gradientUnits="userSpaceOnUse">
<stop stop-color="#F5C400"/>
<stop offset="1" stop-color="#EE9800"/>
</linearGradient>
<linearGradient id="paint2_linear_3513_42" x1="27.5258" y1="17.0526" x2="41.2609" y2="31.7626" gradientUnits="userSpaceOnUse">
<stop stop-color="#00A8EC"/>
<stop offset="1" stop-color="#363A90"/>
</linearGradient>
<clipPath id="clip0_3513_42">
<rect width="56" height="36" fill="white"/>
</clipPath>
</defs>
</svg>
