<svg width="184" height="36" viewBox="0 0 184 36" fill="none" xmlns="http://www.w3.org/2000/svg">
<g clip-path="url(#clip0_3039_107)">
<path d="M56.0003 11.1997C53.1668 20.1399 46.9867 27.595 38.9289 32.1003C37.9988 32.6205 37.0431 33.1016 36.0643 33.5408C33.7818 34.5664 31.3733 35.365 28.8702 35.9082C28.8187 35.9204 28.7659 35.9312 28.7145 35.9407C28.6712 35.9515 28.6265 35.9609 28.5818 35.969C28.5317 35.9812 28.4816 35.992 28.4302 36.0001C28.4369 35.9799 28.4437 35.9609 28.4505 35.9407C28.4924 35.8028 28.5385 35.6677 28.5832 35.5326C28.6211 35.4164 28.6603 35.3002 28.6996 35.1853C29.3833 33.1921 30.2348 31.2773 31.238 29.4571C31.6766 28.6585 32.1464 27.8775 32.6419 27.1167C35.275 23.0776 38.6839 19.5913 42.6586 16.8671C46.6144 14.1523 51.1321 12.1943 56.0003 11.2011V11.1997Z" fill="url(#paint0_linear_3039_107)"/>
<path d="M0 11.1997C2.83351 20.1399 9.01361 27.595 17.0714 32.1003C18.0015 32.6205 18.9573 33.1016 19.9361 33.5408C22.2186 34.5664 24.627 35.365 27.1302 35.9082C27.1816 35.9204 27.2344 35.9312 27.2859 35.9407C27.3292 35.9515 27.3739 35.9609 27.4185 35.969C27.4686 35.9812 27.5187 35.992 27.5702 36.0001C27.5634 35.9799 27.5566 35.9609 27.5499 35.9407C27.5079 35.8028 27.4619 35.6677 27.4172 35.5326C27.3793 35.4164 27.34 35.3002 27.3008 35.1853C26.6171 33.1921 25.7656 31.2773 24.7624 29.4571C24.3238 28.6585 23.854 27.8775 23.3585 27.1167C20.7254 23.0776 17.3165 19.5913 13.3417 16.8671C9.38591 14.1509 4.86827 12.1929 0 11.1997Z" fill="url(#paint1_linear_3039_107)"/>
<path d="M42.8185 0.00388363L42.4273 14.3087C37.9164 17.533 34.1515 21.7314 31.4426 26.5961C30.9714 27.4393 30.5328 28.3028 30.1294 29.1852C29.2372 31.127 28.5075 33.158 27.9565 35.2607C27.4055 33.158 26.6758 31.127 25.7837 29.1852C25.3978 28.3393 24.9781 27.5123 24.5287 26.7029C24.5097 26.6664 24.4908 26.6313 24.4705 26.5961C21.7615 21.7314 17.9966 17.533 13.4857 14.3087L13.0945 0.00388363C13.0931 -0.0596275 16.4208 0.67548 16.7213 0.772773C17.8991 1.15114 19.0377 1.64842 20.1139 2.2565C21.9267 3.27944 23.6568 4.55912 24.9673 6.18879C26.2778 7.81845 27.0616 10.0211 27.5219 12.075C27.5395 12.1534 27.5571 12.2318 27.5734 12.3115C27.8238 13.5169 27.9552 14.7668 27.9552 16.0465C27.9552 14.7668 28.0865 13.5169 28.3369 12.3115C28.3532 12.2318 28.3708 12.1534 28.3884 12.075C28.9516 9.56839 30.0048 7.10362 31.8541 5.24152C33.7034 3.37943 36.0834 1.87814 38.5987 0.975469C39.9173 0.502513 41.2901 0.182255 42.6818 0.0214505C42.7265 0.014694 42.7725 0.0106401 42.8172 0.00523493L42.8185 0.00388363Z" fill="url(#paint2_linear_3039_107)"/>
<path d="M27.8878 6.45111C29.2336 6.45111 30.3246 5.36211 30.3246 4.01877C30.3246 2.67542 29.2336 1.58643 27.8878 1.58643C26.5419 1.58643 25.4509 2.67542 25.4509 4.01877C25.4509 5.36211 26.5419 6.45111 27.8878 6.45111Z" fill="#F0AD1E"/>
</g>
<path d="M127.938 12.2008C126.014 12.2008 124.551 10.6952 124.551 8.67415C124.551 6.66665 126 5.14746 127.938 5.14746C129.103 5.14746 130.106 5.74429 130.567 6.68021H130.58V5.2831H131.827V12.0652H130.58V10.6681H130.567C130.106 11.604 129.117 12.2008 127.938 12.2008ZM125.838 8.67415C125.838 10.0713 126.868 11.0886 128.25 11.0886C129.632 11.0886 130.648 10.0577 130.648 8.67415C130.648 7.2906 129.632 6.25972 128.236 6.25972C126.854 6.25972 125.838 7.2906 125.838 8.67415Z" fill="#141B4D"/>
<path d="M116.883 12.0652V5.2831H118.129L118.143 6.63952C118.536 5.69003 119.403 5.14746 120.568 5.14746C122.194 5.14746 123.183 6.17834 123.183 7.94168V12.0652H121.937V8.15871C121.937 6.96506 121.259 6.27329 120.162 6.27329C118.929 6.27329 118.129 7.12783 118.129 8.55207V12.0652H116.883Z" fill="#141B4D"/>
<path d="M108.854 12.065V2.29883H110.101V6.63937C110.494 5.68987 111.361 5.14731 112.54 5.14731C114.152 5.14731 115.155 6.17818 115.155 7.94153V12.065H113.895V8.15856C113.895 6.96491 113.231 6.27313 112.12 6.27313C110.941 6.27313 110.169 7.05986 110.101 8.37558V12.065H108.854Z" fill="#141B4D"/>
<path d="M104.395 12.2008C102.444 12.2008 101.048 11.0479 101.075 9.2981H102.362C102.322 10.3968 103.162 11.17 104.408 11.17C105.411 11.17 106.089 10.6952 106.089 9.96275C106.089 9.24385 105.411 9.12177 105.072 9.06751L103.528 8.86405C102.552 8.72841 101.644 8.29435 101.644 7.15496C101.644 5.96131 102.674 5.14746 104.219 5.14746C105.763 5.14746 106.725 5.82567 106.874 6.97863H105.601C105.452 6.44962 104.937 6.15121 104.219 6.15121C103.433 6.15121 102.877 6.51744 102.877 7.1007C102.877 7.73822 103.541 7.84673 103.853 7.88743L105.397 8.09089C106.4 8.2401 107.349 8.71484 107.349 9.90849C107.349 11.2785 106.156 12.2008 104.395 12.2008Z" fill="#141B4D"/>
<path d="M98.3888 12.0646V5.28253H99.6354V12.0646H98.3888ZM97.9688 2.96306C97.9688 2.40693 98.4159 2 99.0121 2C99.6218 2 100.069 2.40693 100.069 2.96306C100.069 3.51919 99.6218 3.92611 99.0121 3.92611C98.4159 3.92611 97.9688 3.51919 97.9688 2.96306Z" fill="#141B4D"/>
<path d="M93.3291 12.0652V5.2831H94.535V7.11427C94.8738 5.86636 95.6326 5.14746 96.8792 5.14746C96.9334 5.14746 96.9876 5.14746 97.0418 5.16103V6.40893C96.9876 6.39537 96.8927 6.39537 96.8385 6.39537C95.3209 6.39537 94.5757 7.49407 94.5757 9.20315V12.0652H93.3291Z" fill="#141B4D"/>
<path d="M85.6458 12.0652V2.57031H86.9465V6.92442L90.4288 2.57031H92.0142L88.1254 7.27708L92.0955 12.0652H90.4288L86.9465 7.73827V12.0652H85.6458Z" fill="#141B4D"/>
<path d="M78.6198 12.0646V5.28253H79.8663V12.0646H78.6198ZM78.1997 2.96306C78.1997 2.40693 78.6469 2 79.243 2C79.8528 2 80.2999 2.40693 80.2999 2.96306C80.2999 3.51919 79.8528 3.92611 79.243 3.92611C78.6469 3.92611 78.1997 3.51919 78.1997 2.96306Z" fill="#141B4D"/>
<path d="M73.5601 12.0652V5.2831H74.766V7.11427C75.1047 5.86636 75.8635 5.14746 77.1101 5.14746C77.1643 5.14746 77.2185 5.14746 77.2727 5.16103V6.40893C77.2185 6.39537 77.1237 6.39537 77.0695 6.39537C75.5519 6.39537 74.8066 7.49407 74.8066 9.20315V12.0652H73.5601Z" fill="#141B4D"/>
<path d="M68.2275 12.1998C65.5853 12.1998 63.9322 10.545 64.0542 8.18481H65.4905C65.3685 9.93459 66.4931 11.0469 68.2546 11.0469C69.718 11.0469 70.6123 10.3008 70.6123 9.14787C70.6123 8.13055 69.9619 7.68293 68.8644 7.5066L67.3874 7.28957C65.6666 7.01829 64.8401 6.27226 64.8401 4.98366C64.8401 3.43734 66.0324 2.43359 67.9294 2.43359C69.7587 2.43359 71.0188 3.36952 71.1814 4.90228H69.7993C69.6367 4.03417 68.9186 3.51873 67.8888 3.51873C66.859 3.51873 66.1544 4.04773 66.1544 4.87515C66.1544 5.63474 66.737 5.98741 67.7397 6.15018L69.1489 6.35364C71.0323 6.62493 71.9537 7.52016 71.9537 9.06648C71.9537 10.9519 70.531 12.1998 68.2275 12.1998Z" fill="#141B4D"/>
<path d="M180.084 30.4743V25.4284H178.878V23.8956L179.325 23.8549C179.989 23.8143 180.287 23.448 180.328 22.6749L180.382 21.6982H182.211V23.6922H184V25.4284H182.211V30.4743H180.084Z" fill="#141B4D"/>
<path d="M174.47 30.609C172.194 30.609 170.649 29.1712 170.649 27.0824C170.649 24.9935 172.208 23.5557 174.47 23.5557C176.354 23.5557 177.682 24.5459 178.048 26.0379H175.758C175.5 25.631 175.04 25.3597 174.47 25.3597C173.522 25.3597 172.858 26.0515 172.858 27.0824C172.858 28.0997 173.508 28.8186 174.47 28.8186C175.46 28.8186 176.137 28.0318 176.015 26.9603H178.251C178.386 29.1305 176.787 30.609 174.47 30.609Z" fill="#141B4D"/>
<path d="M166.08 30.609C163.804 30.609 162.3 29.1305 162.3 27.0688C162.3 25.007 163.817 23.5557 166.066 23.5557C168.275 23.5557 169.711 24.9256 169.616 27.1366H164.373C164.427 28.2217 165.104 28.8321 166.039 28.8321C166.866 28.8321 167.489 28.371 167.598 27.6792H169.779C169.657 29.4561 168.112 30.609 166.08 30.609ZM164.549 25.9565H167.449C167.232 25.3597 166.744 25.0206 166.039 25.0206C165.321 25.0206 164.82 25.3733 164.549 25.9565Z" fill="#141B4D"/>
<path d="M154.301 30.4734V23.6913H156.455V24.9935C156.848 24.0847 157.634 23.5557 158.718 23.5557C160.236 23.5557 161.198 24.5865 161.198 26.2414V30.4734H159.03V26.6754C159.03 25.8616 158.583 25.3868 157.837 25.3868C156.997 25.3868 156.455 25.9837 156.455 26.9196V30.4734H154.301Z" fill="#141B4D"/>
<path d="M145.898 30.4734V23.6913H148.053V24.9935C148.446 24.0847 149.231 23.5557 150.315 23.5557C151.833 23.5557 152.795 24.5865 152.795 26.2414V30.4734H150.627V26.6754C150.627 25.8616 150.18 25.3868 149.435 25.3868C148.595 25.3868 148.053 25.9837 148.053 26.9196V30.4734H145.898Z" fill="#141B4D"/>
<path d="M140.794 30.609C138.532 30.609 136.946 29.1577 136.946 27.0824C136.946 25.007 138.532 23.5557 140.794 23.5557C143.071 23.5557 144.656 25.007 144.656 27.0824C144.656 29.1577 143.071 30.609 140.794 30.609ZM139.101 27.0824C139.101 28.0997 139.805 28.8186 140.794 28.8186C141.784 28.8186 142.488 28.0997 142.488 27.0824C142.488 26.0786 141.784 25.3597 140.794 25.3597C139.805 25.3597 139.101 26.0786 139.101 27.0824Z" fill="#141B4D"/>
<path d="M130.866 30.608C127.763 30.608 125.623 28.5056 125.623 25.7385C125.623 22.89 127.899 20.8418 130.839 20.8418C133.089 20.8418 134.945 22.0354 135.527 23.948H133.007C132.56 23.2155 131.747 22.8629 130.826 22.8629C129.118 22.8629 128.007 24.0429 128.007 25.7113C128.007 27.4069 129.186 28.5869 130.839 28.5869C132.574 28.5869 133.712 27.2712 133.549 25.3994H135.907C136.232 28.4377 134.037 30.608 130.866 30.608Z" fill="#141B4D"/>
<path d="M117.367 30.609C115.28 30.609 113.762 29.5646 113.64 27.9233H115.863C115.917 28.588 116.513 29.022 117.394 29.022C118.125 29.022 118.6 28.7372 118.6 28.276C118.6 27.8962 118.288 27.7741 117.976 27.7334L116.377 27.5435C115.646 27.4622 114.223 27.2451 114.223 25.7666C114.223 24.4509 115.348 23.5557 117.218 23.5557C119.033 23.5557 120.131 24.3153 120.32 25.6445H118.139C118.017 25.2783 117.665 25.0613 117.163 25.0613C116.662 25.0613 116.296 25.2783 116.296 25.6581C116.296 26.0243 116.621 26.1329 116.933 26.16L118.505 26.3363C119.25 26.4313 120.727 26.6754 120.727 28.1811C120.727 29.646 119.386 30.609 117.367 30.609Z" fill="#141B4D"/>
<path d="M112.592 23.6914V30.4735H110.438V29.1713C110.045 30.0801 109.259 30.6091 108.175 30.6091C106.657 30.6091 105.695 29.5918 105.695 27.937V23.6914H107.863V27.5029C107.863 28.3032 108.31 28.7915 109.055 28.7915C109.896 28.7915 110.438 28.1947 110.438 27.2452V23.6914H112.592Z" fill="#141B4D"/>
<path d="M96.833 34.0001V23.6913H98.9874V24.9935H99.001C99.421 24.0847 100.248 23.5557 101.332 23.5557C103.188 23.5557 104.597 25.0749 104.597 27.0959C104.597 29.117 103.174 30.609 101.332 30.609C100.234 30.609 99.421 30.08 99.001 29.1712H98.9874V34.0001H96.833ZM98.9332 27.0824C98.9332 28.0861 99.6378 28.7914 100.654 28.7914C101.657 28.7914 102.375 28.0861 102.375 27.0824C102.375 26.0922 101.657 25.3733 100.654 25.3733C99.6378 25.3733 98.9332 26.0922 98.9332 27.0824Z" fill="#141B4D"/>
<path d="M84.7124 30.4734V23.6913H86.8668L86.8804 24.9663C87.2327 24.0711 87.9508 23.5557 88.9129 23.5557C89.8613 23.5557 90.5795 24.0711 90.9182 24.9256C91.3247 24.0711 92.0835 23.5557 93.0862 23.5557C94.5089 23.5557 95.4032 24.573 95.4032 26.2142V30.4734H93.2488V26.5669C93.2488 25.7938 92.8965 25.3868 92.2597 25.3868C91.5686 25.3868 91.135 25.8616 91.135 26.7704V30.4734H88.9806V26.5669C88.9806 25.7938 88.6148 25.3868 87.9779 25.3868C87.2869 25.3868 86.8668 25.8616 86.8668 26.7839V30.4734H84.7124Z" fill="#141B4D"/>
<path d="M78.589 30.609C76.7462 30.609 75.3235 29.117 75.3235 27.0959C75.3235 25.0749 76.7327 23.5557 78.589 23.5557C79.673 23.5557 80.4995 24.0847 80.9196 24.9935V23.6913H83.0875V30.4734H80.9196V29.1712C80.4995 30.08 79.6865 30.609 78.589 30.609ZM77.5457 27.0824C77.5457 28.0861 78.2638 28.7914 79.2665 28.7914C80.2827 28.7914 80.9873 28.0861 80.9873 27.0824C80.9873 26.0922 80.2827 25.3733 79.2665 25.3733C78.2638 25.3733 77.5457 26.0922 77.5457 27.0824Z" fill="#141B4D"/>
<path d="M69.2438 30.608C66.1409 30.608 64 28.5056 64 25.7385C64 22.89 66.2764 20.8418 69.2167 20.8418C71.466 20.8418 73.3223 22.0354 73.9049 23.948H71.3847C70.9375 23.2155 70.1245 22.8629 69.2031 22.8629C67.4959 22.8629 66.3848 24.0429 66.3848 25.7113C66.3848 27.4069 67.5636 28.5869 69.2167 28.5869C70.9511 28.5869 72.0893 27.2712 71.9267 25.3994H74.2843C74.6095 28.4377 72.4145 30.608 69.2438 30.608Z" fill="#141B4D"/>
<defs>
<linearGradient id="paint0_linear_3039_107" x1="56.0003" y1="11.3686" x2="28.5211" y2="36.0515" gradientUnits="userSpaceOnUse">
<stop stop-color="#F5C400"/>
<stop offset="1" stop-color="#EE9800"/>
</linearGradient>
<linearGradient id="paint1_linear_3039_107" x1="-3.30464e-07" y1="11.3686" x2="27.4793" y2="36.0515" gradientUnits="userSpaceOnUse">
<stop stop-color="#F5C400"/>
<stop offset="1" stop-color="#EE9800"/>
</linearGradient>
<linearGradient id="paint2_linear_3039_107" x1="27.5259" y1="17.0525" x2="41.261" y2="31.7625" gradientUnits="userSpaceOnUse">
<stop stop-color="#00A8EC"/>
<stop offset="1" stop-color="#363A90"/>
</linearGradient>
<clipPath id="clip0_3039_107">
<rect width="56" height="36" fill="white"/>
</clipPath>
</defs>
</svg>
