<svg width="24" height="24" viewBox="0 0 24 24" fill="none" xmlns="http://www.w3.org/2000/svg">
<path d="M15.5958 21.2593C15.5958 21.4558 15.5201 21.6442 15.3854 21.7831C15.2507 21.922 15.068 22 14.8775 22H9.1312C8.9407 22 8.758 21.922 8.62329 21.7831C8.48859 21.6442 8.41291 21.4558 8.41291 21.2593C8.41291 21.0629 8.48859 20.8745 8.62329 20.7356C8.758 20.5967 8.9407 20.5186 9.1312 20.5186H14.8775C15.068 20.5186 15.2507 20.5967 15.3854 20.7356C15.5201 20.8745 15.5958 21.0629 15.5958 21.2593ZM20.9282 6.10504C20.1209 4.478 18.9087 3.10148 17.4158 2.11648C17.336 2.06394 17.247 2.02817 17.1537 2.01124C17.0605 1.9943 16.965 1.99653 16.8726 2.0178C16.7802 2.03906 16.6928 2.07895 16.6154 2.13516C16.538 2.19137 16.4722 2.2628 16.4217 2.34534C16.3712 2.42787 16.337 2.51989 16.321 2.61611C16.3051 2.71232 16.3078 2.81083 16.3289 2.90598C16.35 3.00112 16.3892 3.09102 16.4441 3.17051C16.4991 3.25 16.5687 3.31751 16.649 3.36915C17.9299 4.20936 18.9676 5.38981 19.6532 6.78646C19.7438 6.95528 19.8948 7.08097 20.0739 7.1368C20.253 7.19264 20.4461 7.1742 20.6122 7.08541C20.7784 6.99663 20.9043 6.8445 20.9633 6.6614C21.0224 6.47831 21.0097 6.27869 20.9282 6.10504ZM3.71799 7.18643C3.84958 7.18637 3.97863 7.14904 4.09105 7.0785C4.20347 7.00797 4.29494 6.90695 4.35547 6.78646C5.04108 5.38981 6.07884 4.20936 7.35972 3.36915C7.44003 3.31751 7.50966 3.25 7.56459 3.17051C7.61952 3.09102 7.65867 3.00112 7.67979 2.90598C7.70092 2.81083 7.70359 2.71232 7.68768 2.61611C7.67176 2.51989 7.63755 2.42787 7.58703 2.34534C7.53651 2.2628 7.47066 2.19137 7.39328 2.13516C7.3159 2.07895 7.22851 2.03906 7.13613 2.0178C7.04375 1.99653 6.9482 1.9943 6.85498 2.01124C6.76176 2.02817 6.67271 2.06394 6.59294 2.11648C5.1 3.10148 3.8878 4.478 3.08051 6.10504C3.0238 6.21792 2.99621 6.34395 3.00042 6.471C3.00462 6.59805 3.04047 6.72185 3.1045 6.83048C3.16854 6.93912 3.25862 7.02892 3.36606 7.09126C3.47351 7.1536 3.5947 7.18637 3.71799 7.18643ZM20.4272 16.8097C20.5545 17.0347 20.6219 17.2904 20.6228 17.5508C20.6236 17.8113 20.5579 18.0674 20.4321 18.2934C20.3064 18.5193 20.1251 18.707 19.9065 18.8376C19.688 18.9682 19.4399 19.0371 19.1873 19.0373H4.82146C4.569 19.0368 4.32113 18.9677 4.10282 18.8369C3.88451 18.7062 3.70346 18.5184 3.57792 18.2926C3.45238 18.0667 3.38678 17.8107 3.38773 17.5504C3.38867 17.2901 3.45613 17.0346 3.58331 16.8097C4.39228 15.37 4.82146 13.3229 4.82146 10.8898C4.82146 8.92542 5.57823 7.04147 6.92528 5.65243C8.27234 4.26339 10.0993 3.48303 12.0044 3.48303C13.9094 3.48303 15.7364 4.26339 17.0834 5.65243C18.4305 7.04147 19.1873 8.92542 19.1873 10.8898C19.1873 13.322 19.6164 15.3691 20.4272 16.8097ZM19.1873 17.5559C18.2319 15.8644 17.7507 13.622 17.7507 10.8898C17.7507 9.3183 17.1453 7.81114 16.0676 6.69991C14.99 5.58868 13.5284 4.96439 12.0044 4.96439C10.4803 4.96439 9.01874 5.58868 7.9411 6.69991C6.86345 7.81114 6.25804 9.3183 6.25804 10.8898C6.25804 13.6229 5.77499 15.8653 4.82146 17.5559H19.1873Z" fill="#C2C8EF"/>
</svg>
