<svg width="24" height="24" viewBox="0 0 24 24" fill="none" xmlns="http://www.w3.org/2000/svg">
<g clip-path="url(#clip0_3039_1239)">
<path d="M7.55556 2H4.22222C3.63285 2 3.06762 2.23413 2.65087 2.65087C2.23413 3.06762 2 3.63285 2 4.22222V7.55556M22 7.55556V4.22222C22 3.63285 21.7659 3.06762 21.3491 2.65087C20.9324 2.23413 20.3671 2 19.7778 2H16.4444M16.4444 22H19.7778C20.3671 22 20.9324 21.7659 21.3491 21.3491C21.7659 20.9324 22 20.3671 22 19.7778V16.4444M2 16.4444V19.7778C2 20.3671 2.23413 20.9324 2.65087 21.3491C3.06762 21.7659 3.63285 22 4.22222 22H7.55556" stroke="#C2C8EF" stroke-width="1.5" stroke-linecap="round" stroke-linejoin="round"/>
</g>
<defs>
<clipPath id="clip0_3039_1239">
<rect width="24" height="24" fill="white"/>
</clipPath>
</defs>
</svg>
