<svg width="40" height="40" viewBox="0 0 40 40" fill="none" xmlns="http://www.w3.org/2000/svg">
<path d="M6.27077 12.2159C5.61637 12.8703 4.7288 13.238 3.80333 13.238C3.3406 13.238 2.89682 13.4218 2.56962 13.749C2.24241 14.0762 2.05859 14.52 2.05859 14.9827C2.05859 15.4454 2.24241 15.8892 2.56962 16.2164C2.89682 16.5436 3.3406 16.7275 3.80333 16.7275H22.9955C23.9209 16.7275 24.8085 16.3598 25.4629 15.7054C26.1173 15.051 26.485 14.1634 26.485 13.238C26.4805 12.4186 26.1879 11.627 25.6583 11.0018C25.1288 10.3765 24.3961 9.95755 23.5887 9.81828C22.9699 9.71457 22.3904 9.44592 21.9115 9.04061C21.4325 8.63531 21.0716 8.10835 20.8669 7.51522C20.3286 5.95958 19.2578 4.64429 17.8436 3.80176C16.4294 2.95924 14.7629 2.64372 13.1386 2.91095C11.5143 3.17819 10.0368 4.01098 8.96706 5.26217C7.89735 6.51336 7.30434 8.10239 7.29282 9.74849C7.29282 10.674 6.92518 11.5615 6.27077 12.2159Z" stroke="#00A8EC" stroke-width="2.5"/>
<path d="M22.4255 2H36C37.1046 2 38 2.89543 38 4V21.6364M38 21.6364V28.6364C38 29.7409 37.1046 30.6364 36 30.6364H4C2.89543 30.6364 2 29.7409 2 28.6364V23.6364C2 22.5318 2.89543 21.6364 4 21.6364H38ZM5.26809 38H34.6809" stroke="#363A90" stroke-width="2.5" stroke-linecap="round" stroke-linejoin="round"/>
<path d="M13.4551 30.6362V37.9999M26.546 30.6362V37.9999" stroke="#363A90" stroke-width="2.5" stroke-linecap="round" stroke-linejoin="round"/>
</svg>
