<svg width="48" height="48" viewBox="0 0 48 48" fill="none" xmlns="http://www.w3.org/2000/svg">
<path d="M20.2357 6.12729L1.59001 37.3712C1.20558 38.0394 1.00217 38.797 1.00002 39.5687C0.997865 40.3403 1.19704 41.0991 1.57774 41.7695C1.95844 42.4398 2.50738 42.9985 3.16995 43.3898C3.83253 43.7811 4.58564 43.9915 5.35436 44H42.6456C43.4144 43.9915 44.1675 43.7811 44.83 43.3898C45.4926 42.9985 46.0416 42.4398 46.4223 41.7695C46.803 41.0991 47.0021 40.3403 47 39.5687C46.9978 38.797 46.7944 38.0394 46.41 37.3712L27.7644 6.12729C27.3719 5.4779 26.8193 4.94099 26.16 4.56837C25.5006 4.19575 24.7567 4 24 4C23.2433 4 22.4994 4.19575 21.84 4.56837C21.1807 4.94099 20.6281 5.4779 20.2357 6.12729Z" fill="#FFEBC7" stroke="#EE9800" stroke-width="2" stroke-linecap="round" stroke-linejoin="round"/>
<path d="M24 16V28" stroke="#EE9800" stroke-width="3" stroke-linecap="round" stroke-linejoin="round"/>
<path d="M24 34H24.0199" stroke="#EE9800" stroke-width="3" stroke-linecap="round" stroke-linejoin="round"/>
</svg>
