<svg width="16" height="16" viewBox="0 0 16 16" fill="none" xmlns="http://www.w3.org/2000/svg">
<g clip-path="url(#clip0_3713_11108)">
<path d="M2.66699 8C2.66699 8 4.60639 4 8.00033 4C11.3943 4 13.3337 8 13.3337 8C13.3337 8 11.3943 12 8.00033 12C4.60639 12 2.66699 8 2.66699 8Z" stroke="#141414" stroke-width="1.25" stroke-linecap="round" stroke-linejoin="round"/>
<path d="M8.00033 9.33073C8.73671 9.33073 9.33366 8.73378 9.33366 7.9974C9.33366 7.26102 8.73671 6.66406 8.00033 6.66406C7.26395 6.66406 6.66699 7.26102 6.66699 7.9974C6.66699 8.73378 7.26395 9.33073 8.00033 9.33073Z" stroke="#141414" stroke-width="1.25" stroke-linecap="round" stroke-linejoin="round"/>
<path d="M4.74107 0.664062H2.29662C1.86442 0.664063 1.44991 0.835755 1.1443 1.14137C0.838685 1.44698 0.666992 1.86149 0.666992 2.29369V4.73814M15.3337 4.73814V2.29369C15.3337 1.86149 15.162 1.44698 14.8564 1.14137C14.5507 0.835755 14.1362 0.664063 13.704 0.664062H11.2596M11.2596 15.3307H13.704C14.1362 15.3307 14.5507 15.159 14.8564 14.8534C15.162 14.5478 15.3337 14.1333 15.3337 13.7011V11.2567M0.666992 11.2567V13.7011C0.666992 14.1333 0.838685 14.5478 1.1443 14.8534C1.44991 15.159 1.86442 15.3307 2.29662 15.3307H4.74107" stroke="#141414" stroke-width="1.25" stroke-linecap="round" stroke-linejoin="round"/>
</g>
<defs>
<clipPath id="clip0_3713_11108">
<rect width="16" height="16" fill="white"/>
</clipPath>
</defs>
</svg>
