<svg width="20" height="20" viewBox="0 0 20 20" fill="none" xmlns="http://www.w3.org/2000/svg">
<path d="M2.50033 5.99967H8.33366C8.83366 5.99967 9.16699 5.66634 9.16699 5.16634V2.66634C9.16699 2.16634 8.83366 1.83301 8.33366 1.83301H2.50033C2.00033 1.83301 1.66699 2.16634 1.66699 2.66634V5.16634C1.66699 5.58301 2.00033 5.99967 2.50033 5.99967Z" fill="white"/>
<path opacity="0.5" d="M8.41666 18.3337H2.58333C2.08333 18.3337 1.75 18.0003 1.75 17.5003V8.33366C1.75 7.83366 2.08333 7.50033 2.58333 7.50033H8.41666C8.91666 7.50033 9.24999 7.83366 9.24999 7.50033V16.667C9.24999 18.0003 8.91666 18.3337 8.41666 18.3337ZM10.9167 15.0003V17.5003C10.9167 18.0003 11.25 18.3337 11.75 18.3337H17.5833C18.0833 18.3337 18.4167 18.0003 18.4167 17.5003V15.0003C18.4167 14.5003 18.0833 14.167 17.5833 14.167H11.75C11.25 14.167 10.9167 14.5003 10.9167 15.0003ZM17.5833 1.66699H11.75C11.25 1.66699 10.9167 2.00033 10.9167 2.50033V11.667C10.9167 12.167 11.25 12.5003 11.75 12.5003H17.5833C18.0833 12.5003 18.4167 12.167 18.4167 11.667V2.50033C18.4167 2.00033 18.0833 1.66699 17.5833 1.66699Z" fill="white"/>
</svg>
