<svg width="16" height="16" viewBox="0 0 16 16" fill="none" xmlns="http://www.w3.org/2000/svg">
<path d="M5.00488 6.32031H14.4335C14.7495 6.32031 15.0049 6.57567 15.0049 6.89174V14.2846C15.0049 14.6007 14.7495 14.856 14.4335 14.856H5.00488C4.68881 14.856 4.43345 14.6007 4.43345 14.2846V6.89174C4.43345 6.57567 4.68881 6.32031 5.00488 6.32031ZM5.7906 13.4989H13.6477V7.67746H5.7906V13.4989Z" fill="#141414"/>
<path d="M2.37452 4.72281C3.78167 2.92459 5.87452 1.97995 7.99238 1.96924L7.99595 0.826378C7.99595 0.710307 8.13167 0.646021 8.22095 0.717449L10.5067 2.52102C10.5781 2.57638 10.5763 2.68352 10.5067 2.74066L8.21917 4.54602C8.12809 4.61745 7.99238 4.55316 7.99417 4.43709V3.29602C7.76381 3.29781 7.53167 3.31209 7.30131 3.34066C6.54952 3.43352 5.83524 3.66566 5.17631 4.03173C4.49595 4.41031 3.90488 4.91924 3.41917 5.53709C2.93524 6.15673 2.58524 6.85316 2.38167 7.60495C2.1598 8.42512 2.12018 9.28391 2.26559 10.121H0.928095C0.663809 8.27102 1.12988 6.31745 2.37452 4.72281Z" fill="#141414"/>
</svg>
