<svg width="16" height="16" viewBox="0 0 16 16" fill="none" xmlns="http://www.w3.org/2000/svg">
<path d="M10.8569 6.32031H1.42836C1.11229 6.32031 0.856934 6.57567 0.856934 6.89174V14.2846C0.856934 14.6007 1.11229 14.856 1.42836 14.856H10.8569C11.173 14.856 11.4284 14.6007 11.4284 14.2846V6.89174C11.4284 6.57567 11.173 6.32031 10.8569 6.32031ZM10.0712 13.4989H2.21408V7.67746H10.0712V13.4989Z" fill="#141414"/>
<path d="M13.4873 4.72281C12.0802 2.92459 9.98729 1.97995 7.86944 1.96924L7.86586 0.826378C7.86586 0.710307 7.73015 0.646021 7.64086 0.717449L5.35515 2.52102C5.28372 2.57638 5.28551 2.68352 5.35515 2.74066L7.64265 4.54602C7.73372 4.61745 7.86944 4.55316 7.86765 4.43709V3.29602C8.09801 3.29781 8.33015 3.31209 8.56051 3.34066C9.31229 3.43352 10.0266 3.66566 10.6855 4.03173C11.3659 4.41031 11.9569 4.91924 12.4427 5.53709C12.9266 6.15673 13.2766 6.85316 13.4802 7.60495C13.702 8.42512 13.7416 9.28391 13.5962 10.121H14.9337C15.198 8.27102 14.7319 6.31745 13.4873 4.72281Z" fill="#141414"/>
</svg>
