<svg width="24" height="24" viewBox="0 0 24 24" fill="none" xmlns="http://www.w3.org/2000/svg">
<path d="M10.586 2.31081C11.2326 1.25416 12.7674 1.25416 13.414 2.31081C13.8747 3.0637 14.8446 3.32357 15.62 2.9019C16.7083 2.31011 18.0375 3.07755 18.0692 4.31593C18.0917 5.19831 18.8017 5.90828 19.6841 5.93082C20.9224 5.96245 21.6899 7.2917 21.0981 8.37999C20.6764 9.15542 20.9363 10.1253 21.6892 10.586C22.7458 11.2326 22.7458 12.7674 21.6892 13.414C20.9363 13.8747 20.6764 14.8446 21.0981 15.62C21.6899 16.7083 20.9224 18.0375 19.6841 18.0692C18.8017 18.0917 18.0917 18.8017 18.0692 19.6841C18.0375 20.9224 16.7083 21.6899 15.62 21.0981C14.8446 20.6764 13.8747 20.9363 13.414 21.6892C12.7674 22.7458 11.2326 22.7458 10.586 21.6892C10.1253 20.9363 9.15542 20.6764 8.37999 21.0981C7.2917 21.6899 5.96245 20.9224 5.93082 19.6841C5.90828 18.8017 5.19831 18.0917 4.31593 18.0692C3.07755 18.0375 2.31011 16.7083 2.9019 15.62C3.32357 14.8446 3.0637 13.8747 2.31081 13.414C1.25416 12.7674 1.25416 11.2326 2.31081 10.586C3.0637 10.1253 3.32357 9.15542 2.9019 8.37999C2.31011 7.2917 3.07755 5.96245 4.31593 5.93082C5.19831 5.90828 5.90828 5.19831 5.93082 4.31593C5.96245 3.07755 7.2917 2.31011 8.37999 2.9019C9.15542 3.32357 10.1253 3.0637 10.586 2.31081Z" fill="#115630"/>
<path d="M16.6666 8.5L10.2499 14.9167L7.33325 12" stroke="white" stroke-width="2" stroke-linecap="round" stroke-linejoin="round"/>
</svg>
